<?xml version="1.0" encoding="UTF-8" standalone="no"?>
<!-- Created with Inkscape (http://www.inkscape.org/) -->

<svg
   xmlns:osb="http://www.openswatchbook.org/uri/2009/osb"
   xmlns:dc="http://purl.org/dc/elements/1.1/"
   xmlns:cc="http://creativecommons.org/ns#"
   xmlns:rdf="http://www.w3.org/1999/02/22-rdf-syntax-ns#"
   xmlns:svg="http://www.w3.org/2000/svg"
   xmlns="http://www.w3.org/2000/svg"
   xmlns:sodipodi="http://sodipodi.sourceforge.net/DTD/sodipodi-0.dtd"
   xmlns:inkscape="http://www.inkscape.org/namespaces/inkscape"
   sodipodi:docname="Click.svg"
   inkscape:version="0.48.5 r10040"
   version="1.1"
   id="svg2"
   height="1052.3622047"
   width="744.09448819">
  <sodipodi:namedview
     id="base"
     pagecolor="#ffffff"
     bordercolor="#666666"
     borderopacity="1.0"
     inkscape:pageopacity="0.0"
     inkscape:pageshadow="2"
     inkscape:zoom="0.24748737"
     inkscape:cx="624.86853"
     inkscape:cy="451.38158"
     inkscape:document-units="px"
     inkscape:current-layer="layer1"
     showgrid="false"
     inkscape:window-width="1600"
     inkscape:window-height="837"
     inkscape:window-x="-8"
     inkscape:window-y="-8"
     inkscape:window-maximized="1" />
  <defs
     id="defs4">
    <linearGradient
       id="linearGradient7385"
       osb:paint="solid">
      <stop
         style="stop-color:#212114;stop-opacity:1;"
         offset="0"
         id="stop7387" />
    </linearGradient>
    <marker
       inkscape:stockid="Arrow2Lstart"
       orient="auto"
       refY="0.0"
       refX="0.0"
       id="Arrow2Lstart"
       style="overflow:visible">
      <path
         id="path6755"
         style="fill-rule:evenodd;stroke-width:0.62500000;stroke-linejoin:round"
         d="M 8.7185878,4.0337352 L -2.2072895,0.016013256 L 8.7185884,-4.0017078 C 6.9730900,-1.6296469 6.9831476,1.6157441 8.7185878,4.0337352 z "
         transform="scale(1.1) translate(1,0)" />
    </marker>
  </defs>
  <metadata
     id="metadata7">
    <rdf:RDF>
      <cc:Work
         rdf:about="">
        <dc:format>image/svg+xml</dc:format>
        <dc:type
           rdf:resource="http://purl.org/dc/dcmitype/StillImage" />
        <dc:title />
      </cc:Work>
    </rdf:RDF>
  </metadata>
  <g
     id="layer1"
     inkscape:groupmode="layer"
     inkscape:label="Layer 1">
    <g
       id="g6723"
       transform="matrix(0.02274545,0.99974129,-0.99974129,0.02274545,810.23182,222.26079)"
       style="fill:none">
      <path
         transform="matrix(2.1847985,0,0,2.1847985,-359.63003,-637.03712)"
         style="fill:none;stroke:#000000;stroke-width:0.27462488000000002;stroke-linecap:butt;stroke-linejoin:miter;stroke-miterlimit:4;stroke-opacity:1"
         d="m 330.31988,532.13361 c 0,17.85254 -14.47235,32.32488 -32.32488,32.32488 -17.85254,0 -32.32489,-14.47234 -32.32489,-32.32488 0,-17.85254 14.47235,-32.32489 32.32489,-32.32489 2.6246,0 5.23943,0.31965 7.78674,0.95189"
         id="path3781"
         inkscape:connector-curvature="0" />
      <path
         transform="matrix(0.79996903,0,0,0.79996903,53.042226,99.877183)"
         style="fill:none;stroke:#000000;stroke-width:10.93792343000000000;stroke-linecap:butt;stroke-linejoin:miter;stroke-miterlimit:4;stroke-opacity:1;stroke-dasharray:none"
         d="m 330.31988,532.13361 c 0,17.85254 -14.47235,32.32488 -32.32488,32.32488 -17.85254,0 -32.32489,-14.47234 -32.32489,-32.32488 0,-17.85254 14.47235,-32.32489 32.32489,-32.32489 2.6246,0 5.23943,0.31965 7.78674,0.95189"
         id="path3787"
         inkscape:connector-curvature="0" />
      <g
         id="g6706"
         style="fill:none">
        <path
           style="fill:none;stroke:#000000;stroke-width:8.27209854000000000;stroke-linecap:butt;stroke-linejoin:miter;stroke-miterlimit:4;stroke-opacity:1;stroke-dasharray:none"
           d="m 328.47901,525.56759 c 0,20.46216 -16.58786,37.05002 -37.05001,37.05002 -20.46216,0 -37.05003,-16.58786 -37.05003,-37.05002 0,-20.46216 16.58787,-37.05002 37.05003,-37.05002 3.00825,0 6.00531,0.36637 8.92498,1.09103"
           id="path6708"
           inkscape:connector-curvature="0" />
        <path
           style="fill:none;stroke:#000000;stroke-width:5.60627413000000010;stroke-linecap:butt;stroke-linejoin:miter;stroke-miterlimit:4;stroke-opacity:1;stroke-dasharray:none"
           d="m 339.67012,525.56759 c 0,26.64284 -21.5983,48.24113 -48.24112,48.24113 -26.64284,0 -48.24114,-21.59829 -48.24114,-48.24113 0,-26.64284 21.5983,-48.24114 48.24114,-48.24114 3.91691,0 7.81924,0.47704 11.6208,1.42059"
           id="path6710"
           inkscape:connector-curvature="0" />
        <path
           style="fill:none;stroke:#000000;stroke-width:2.94044947999999980;stroke-linecap:butt;stroke-linejoin:miter;stroke-miterlimit:4;stroke-opacity:1;stroke-dasharray:none"
           d="m 350.86124,525.56759 c 0,32.82352 -26.60874,59.43224 -59.43224,59.43224 -32.82352,0 -59.43226,-26.60872 -59.43226,-59.43224 0,-32.82352 26.60874,-59.43225 59.43226,-59.43225 4.82556,0 9.63317,0.5877 14.31663,1.75013"
           id="path6712"
           inkscape:connector-curvature="0" />
      </g>
    </g>
    <g
       id="g8036"
       style="fill:none;stroke:#000000;stroke-width:10.59424782;stroke-miterlimit:4;stroke-opacity:1;stroke-dasharray:none"
       transform="matrix(0.39194381,0,0,0.39194381,207.10536,356.56101)">
      <path
         style="font-size:medium;font-style:normal;font-variant:normal;font-weight:normal;font-stretch:normal;text-indent:0;text-align:start;text-decoration:none;line-height:normal;letter-spacing:normal;word-spacing:normal;text-transform:none;direction:ltr;block-progression:tb;writing-mode:lr-tb;text-anchor:start;baseline-shift:baseline;color:#000000;fill:none;stroke:#000000;stroke-width:10.59424782;stroke-miterlimit:4;stroke-opacity:1;stroke-dasharray:none;marker:none;visibility:visible;display:inline;overflow:visible;enable-background:accumulate;font-family:Sans;-inkscape-font-specification:Sans"
         d="m 292.92215,526.47991 -0.60576,0.49589 92.01693,109.95659 0.52974,-0.5146 -91.94091,-109.93788 z"
         id="path7478"
         inkscape:connector-curvature="0" />
    </g>
    <path
       inkscape:connector-curvature="0"
       id="path8032"
       style="fill:none;stroke:#000000;stroke-width:5;stroke-linejoin:round;stroke-miterlimit:4;stroke-opacity:1;stroke-dasharray:none"
       d="m 311.73766,582.00775 -20.21201,-56.38571 51.92629,29.85858 c -15.1244,0.94176 -27.90012,11.69536 -31.71428,26.52713 z" />
  </g>
</svg>
