<?xml version="1.0" encoding="UTF-8" standalone="no"?>
<svg
   xmlns:dc="http://purl.org/dc/elements/1.1/"
   xmlns:cc="http://creativecommons.org/ns#"
   xmlns:rdf="http://www.w3.org/1999/02/22-rdf-syntax-ns#"
   xmlns:svg="http://www.w3.org/2000/svg"
   xmlns="http://www.w3.org/2000/svg"
   xmlns:sodipodi="http://sodipodi.sourceforge.net/DTD/sodipodi-0.dtd"
   xmlns:inkscape="http://www.inkscape.org/namespaces/inkscape"
   height="40.915241"
   id="svg8"
   version="1.1"
   viewBox="0 0 10.200659 10.825491"
   width="38.553673"
   inkscape:version="0.48.5 r10040"
   sodipodi:docname="new_calc.svg">
  <metadata
     id="metadata22">
    <rdf:RDF>
      <cc:Work
         rdf:about="">
        <dc:format>image/svg+xml</dc:format>
        <dc:type
           rdf:resource="http://purl.org/dc/dcmitype/StillImage" />
        <dc:title />
      </cc:Work>
    </rdf:RDF>
  </metadata>
  <defs
     id="defs20" />
  <sodipodi:namedview
     pagecolor="#ffffff"
     bordercolor="#b3be93"
     borderopacity="0"
     objecttolerance="10"
     gridtolerance="10"
     guidetolerance="10"
     inkscape:pageopacity="0"
     inkscape:pageshadow="2"
     inkscape:window-width="1600"
     inkscape:window-height="837"
     id="namedview18"
     showgrid="true"
     fit-margin-top="0"
     fit-margin-left="0"
     fit-margin-right="0"
     fit-margin-bottom="0"
     inkscape:zoom="9.8333333"
     inkscape:cx="-11.31859"
     inkscape:cy="16.54544"
     inkscape:window-x="-8"
     inkscape:window-y="-8"
     inkscape:window-maximized="1"
     inkscape:current-layer="svg8">
    <inkscape:grid
       type="xygrid"
       id="grid3861"
       empspacing="5"
       visible="true"
       enabled="true"
       snapvisiblegridlinesonly="true" />
  </sodipodi:namedview>
  <path
     inkscape:connector-curvature="0"
     style="fill:#b3be93;fill-opacity:1;stroke:none"
     id="path4487"
     d="M 0,0 V 8.46667 H 7.7611116 V 0 z M 0.7055555,0.70556 H 7.0555556 V 7.76111 H 0.7055555 z" />
  <path
     inkscape:connector-curvature="0"
     style="fill:#000000;fill-opacity:1;stroke:none"
     id="path5236"
     d="m 1.4111111,1.41112 h 4.938889 v 1.41109 h -4.938889 z" />
  <path
     inkscape:connector-curvature="0"
     style="fill:#000000;fill-opacity:1;stroke:none"
     id="path5254"
     d="M 1.4111114,3.52779 H 2.1166671 V 4.23336 H 1.4111114 z" />
  <path
     inkscape:connector-curvature="0"
     style="fill:#000000;fill-opacity:1;stroke:none"
     id="path5256"
     d="M 1.4111111,4.93888 H 2.1166669 V 5.64445 H 1.4111111 z" />
  <path
     inkscape:connector-curvature="0"
     style="fill:#000000;fill-opacity:1;stroke:none"
     id="path5258"
     d="M 1.4111111,6.34997 H 2.1166669 V 7.05555 H 1.4111111 z" />
  <path
     inkscape:connector-curvature="0"
     style="fill:#000000;fill-opacity:1;stroke:none"
     id="path5260"
     d="M 2.8222224,3.52779 H 3.5277781 V 4.23336 H 2.8222224 z" />
  <path
     inkscape:connector-curvature="0"
     style="fill:#000000;fill-opacity:1;stroke:none"
     id="path5262"
     d="M 2.8222221,4.93888 H 3.5277779 V 5.64445 H 2.8222221 z" />
  <path
     inkscape:connector-curvature="0"
     style="fill:#000000;fill-opacity:1;stroke:none"
     id="path5264"
     d="M 2.8222221,6.34997 H 3.5277779 V 7.05555 H 2.8222221 z" />
  <path
     inkscape:connector-curvature="0"
     style="fill:#000000;fill-opacity:1;stroke:none"
     id="path5266"
     d="M 4.2333333,3.52776 H 4.9388891 V 4.23333 H 4.2333333 z" />
  <path
     inkscape:connector-curvature="0"
     style="fill:#000000;fill-opacity:1;stroke:none"
     id="path5268"
     d="M 4.2333331,4.93885 H 4.9388888 V 5.64443 H 4.2333331 z" />
  <path
     inkscape:connector-curvature="0"
     style="fill:#000000;fill-opacity:1;stroke:none"
     id="path5270"
     d="M 4.2333331,6.34995 H 4.9388888 V 7.05552 H 4.2333331 z" />
  <path
     inkscape:connector-curvature="0"
     style="fill:#000000;fill-opacity:1;stroke:none"
     id="path5272"
     d="M 5.6444446,3.52779 H 6.3500004 V 4.23336 H 5.6444446 z" />
  <path
     inkscape:connector-curvature="0"
     style="fill:#000000;fill-opacity:1;stroke:none"
     id="path5321"
     d="M 5.6444446,4.93888 H 6.3500004 V 5.64445 H 5.6444446 z" />
  <path
     style="fill:none;stroke:none"
     d="m 0.5759356,0.4894106 c -0.221625,0.1669816 -0.1025435,0.4770531 -0.132852,0.7130297 0,2.1794491 0,4.3588982 0,6.5383473 0.00933,0.2330481 0.2614705,0.2941701 0.4532108,0.2648638 2.0449154,0 4.0898305,0 6.1347458,0 0.2330482,-0.00933 0.2941698,-0.2614708 0.2648635,-0.4532112 0,-2.2781074 0,-4.5562146 0,-6.8343221 C 7.2865737,0.48507 7.0344332,0.4239482 6.8426929,0.4532546 c -2.0449154,0 -4.0898307,0 -6.1347458,0 -0.044004,0.012052 -0.088008,0.024104 -0.1320115,0.036156 z M 3.882947,1.6556514 c 0.7368535,0 1.4737067,0 2.2105602,0 0,0.3077462 0,0.6154926 0,0.9232387 -1.4737067,0 -2.9474136,0 -4.4211203,0 0,-0.3077461 0,-0.6154925 0,-0.9232387 0.7368535,0 1.4737067,0 2.2105601,0 z M 1.7707648,3.7812869 c 0.1901727,-0.030966 0.1113213,0.306142 -0.08072,0.1967558 -0.022363,-0.047821 -0.065217,-0.2577734 0.08072,-0.1967558 z m 1.3991527,0 c 0.1901724,-0.030966 0.1113213,0.306142 -0.08072,0.1967558 -0.022363,-0.047821 -0.065218,-0.2577734 0.08072,-0.1967558 z m 1.4260591,0 c 0.1901725,-0.030966 0.1113213,0.306142 -0.08072,0.1967558 -0.022363,-0.047821 -0.065217,-0.2577734 0.08072,-0.1967558 z m 1.3991527,0 c 0.1901724,-0.030966 0.1113213,0.306142 -0.08072,0.1967558 -0.022363,-0.047821 -0.065218,-0.2577734 0.08072,-0.1967558 z M 1.7707648,5.1804393 C 1.9265039,5.116226 1.9204573,5.5008838 1.7438578,5.4041019 1.6348738,5.4583407 1.6243093,5.0920568 1.7707648,5.1804393 z m 1.3991527,0 C 3.3256565,5.116226 3.31961,5.5008838 3.1430105,5.4041019 3.0340265,5.4583407 3.0234617,5.0920568 3.1699175,5.1804393 z m 1.4260591,0 C 4.7517157,5.116226 4.7456691,5.5008838 4.5690698,5.4041019 4.4600858,5.4583407 4.4495213,5.0920568 4.5959766,5.1804393 z m 1.3991527,0 C 6.1508683,5.116226 6.1448215,5.5008838 5.9682223,5.4041019 5.8592383,5.4583407 5.8486735,5.0920568 5.9951293,5.1804393 z M 1.7707648,6.6064987 c 0.1901727,-0.030966 0.1113213,0.3061423 -0.08072,0.1967558 -0.022363,-0.047821 -0.065217,-0.2577734 0.08072,-0.1967558 z m 1.3991527,0 c 0.1901724,-0.030966 0.1113213,0.3061423 -0.08072,0.1967558 -0.022363,-0.047821 -0.065218,-0.2577734 0.08072,-0.1967558 z m 1.4260591,0 c 0.1901725,-0.030966 0.1113213,0.3061423 -0.08072,0.1967558 -0.022363,-0.047821 -0.065217,-0.2577734 0.08072,-0.1967558 z m 1.3991527,0 C 6.1853017,6.575533 6.1064506,6.912641 5.9144089,6.8032545 5.8920463,6.7554337 5.8491914,6.5454811 5.9951293,6.6064987 z"
     id="path2999"
     inkscape:connector-curvature="0" />
  <path
     sodipodi:type="arc"
     style="color:#000000;fill:none;stroke:none;stroke-width:1px;marker:none;visibility:visible;display:inline;overflow:visible;enable-background:accumulate"
     id="path3007"
     sodipodi:cx="47.542374"
     sodipodi:cy="48"
     sodipodi:rx="1.6779661"
     sodipodi:ry="0.91525424"
     d="m 49.22034,48 a 1.6779661,0.91525424 0 1 1 -3.355932,0 1.6779661,0.91525424 0 1 1 3.355932,0 z"
     transform="matrix(0.26458333,0,0,0.26458333,-2.8222224,-2.11667)" />
  <path
     inkscape:connector-curvature="0"
     style="fill:#000000;fill-opacity:1;stroke:none"
     id="path5323"
     d="m 5.379861,5.8208032 h 0.7055558 v 0.70558 H 5.379861 z" />
  <path
     sodipodi:type="arc"
     style="color:#000000;fill:#e6e6e6;stroke:#000000;stroke-width:1px;marker:none;visibility:visible;display:inline;overflow:visible;enable-background:accumulate"
     id="path3857"
     sodipodi:cx="37.423729"
     sodipodi:cy="37.677967"
     sodipodi:rx="4.9830508"
     sodipodi:ry="7.0677967"
     d="m 42.40678,37.677967 a 4.9830508,7.0677967 0 1 1 -9.966102,0 4.9830508,7.0677967 0 1 1 9.966102,0 z"
     transform="matrix(0.56316386,0,0,0.39705077,-15.097082,-8.7902682)"
     inkscape:transform-center-x="7.605979"
     inkscape:transform-center-y="-10.197823" />
  <g
     id="g3022"
     transform="matrix(1.1288587,0,0,1.1112614,-0.68378678,-0.75594258)">
    <path
       inkscape:connector-curvature="0"
       id="path3889"
       d="m 5.9590907,4.5139011 0,3.2455554"
       style="fill:none;stroke:#000000;stroke-width:0.30667618px;stroke-linecap:butt;stroke-linejoin:miter;stroke-opacity:1" />
    <path
       inkscape:connector-curvature="0"
       id="path3891"
       d="m 4.355833,6.1362102 3.2263503,0"
       style="fill:none;stroke:#000000;stroke-width:0.30623588px;stroke-linecap:butt;stroke-linejoin:miter;stroke-opacity:1" />
  </g>
</svg>
